<svg width="17" height="16" viewBox="0 0 17 16" fill="none" xmlns="http://www.w3.org/2000/svg">
<g clip-path="url(#clip0_3482_589)">
<path d="M12.2426 10.3439C13.2109 9.02264 13.6446 7.38444 13.4569 5.7571C13.2692 4.12976 12.474 2.63329 11.2304 1.56708C9.98671 0.500869 8.38634 -0.0564485 6.74943 0.00662462C5.11252 0.0696978 3.55978 0.74851 2.40186 1.90726C1.24394 3.066 0.566243 4.61922 0.504341 6.25618C0.44244 7.89314 1.0009 9.49311 2.068 10.736C3.1351 11.9789 4.63214 12.773 6.25961 12.9595C7.88709 13.1461 9.52497 12.7112 10.8456 11.7419H10.8446C10.8746 11.7819 10.9066 11.8199 10.9426 11.8569L14.7926 15.7069C14.9801 15.8946 15.2345 16.0001 15.4997 16.0001C15.765 16.0002 16.0195 15.895 16.2071 15.7074C16.3947 15.5199 16.5002 15.2656 16.5003 15.0003C16.5004 14.735 16.3951 14.4806 16.2076 14.2929L12.3576 10.4429C12.3218 10.4068 12.2834 10.3733 12.2426 10.3429V10.3439ZM12.5006 6.49995C12.5006 7.22222 12.3583 7.93742 12.0819 8.60471C11.8055 9.272 11.4004 9.87831 10.8897 10.389C10.379 10.8998 9.77264 11.3049 9.10535 11.5813C8.43806 11.8577 7.72286 11.9999 7.00059 11.9999C6.27832 11.9999 5.56312 11.8577 4.89583 11.5813C4.22854 11.3049 3.62223 10.8998 3.11151 10.389C2.60078 9.87831 2.19566 9.272 1.91926 8.60471C1.64285 7.93742 1.50059 7.22222 1.50059 6.49995C1.50059 5.04126 2.08006 3.64231 3.11151 2.61086C4.14296 1.57941 5.5419 0.999948 7.00059 0.999948C8.45928 0.999948 9.85823 1.57941 10.8897 2.61086C11.9211 3.64231 12.5006 5.04126 12.5006 6.49995V6.49995Z" fill="#E71E1E"/>
</g>
<defs>
<clipPath id="clip0_3482_589">
<rect width="16.0006" height="16.0003" fill="white" transform="translate(0.499695 -0.000152588)"/>
</clipPath>
</defs>
</svg>
