<svg width="24" height="41" viewBox="0 0 24 41" fill="none" xmlns="http://www.w3.org/2000/svg">
<path fill-rule="evenodd" clip-rule="evenodd" d="M0.500773 0.446522C0.659111 0.302998 0.847209 0.189127 1.0543 0.111432C1.26138 0.033737 1.48339 -0.0062561 1.70759 -0.0062561C1.9318 -0.0062561 2.1538 0.033737 2.36089 0.111432C2.56797 0.189127 2.75607 0.302998 2.91441 0.446522L23.369 18.9406C23.5277 19.0838 23.6536 19.2539 23.7396 19.4411C23.8255 19.6283 23.8697 19.8291 23.8697 20.0318C23.8697 20.2345 23.8255 20.4352 23.7396 20.6225C23.6536 20.8097 23.5277 20.9798 23.369 21.1229L2.91441 39.617C2.59434 39.9064 2.16024 40.069 1.70759 40.069C1.25495 40.069 0.820841 39.9064 0.500773 39.617C0.180705 39.3276 0.000892444 38.9351 0.000892444 38.5259C0.000892444 38.1166 0.180705 37.7241 0.500773 37.4347L19.7519 20.0318L0.500773 2.62883C0.342035 2.48566 0.216093 2.31559 0.130162 2.12836C0.0442308 1.94112 0 1.74039 0 1.53767C0 1.33496 0.0442308 1.13423 0.130162 0.946992C0.216093 0.759755 0.342035 0.589684 0.500773 0.446522V0.446522Z" fill="white"/>
</svg>
