<svg width="24" height="41" viewBox="0 0 24 41" fill="none" xmlns="http://www.w3.org/2000/svg">
<path fill-rule="evenodd" clip-rule="evenodd" d="M23.3689 39.6163C23.2106 39.7598 23.0225 39.8736 22.8154 39.9513C22.6083 40.029 22.3863 40.069 22.1621 40.069C21.9379 40.069 21.7159 40.029 21.5088 39.9513C21.3017 39.8736 21.1136 39.7598 20.9553 39.6163L0.500767 21.1221C0.342028 20.979 0.216087 20.8089 0.130156 20.6217C0.0442245 20.4344 -7.62987e-06 20.2337 -7.61038e-06 20.031C-7.5909e-06 19.8283 0.0442245 19.6276 0.130156 19.4403C0.216087 19.2531 0.342029 19.083 0.500767 18.9398L20.9553 0.445743C21.2754 0.156351 21.7095 -0.00622828 22.1621 -0.00622825C22.6148 -0.00622821 23.0489 0.156352 23.369 0.445743C23.689 0.735135 23.8688 1.12763 23.8688 1.53689C23.8688 1.94615 23.689 2.33866 23.369 2.62805L4.11781 20.031L23.3689 37.4339C23.5277 37.5771 23.6536 37.7472 23.7396 37.9344C23.8255 38.1217 23.8697 38.3224 23.8697 38.5251C23.8697 38.7278 23.8255 38.9285 23.7396 39.1158C23.6536 39.303 23.5277 39.4731 23.3689 39.6163Z" fill="white"/>
</svg>
